<svg width="122" height="34" viewBox="0 0 122 34" fill="none" xmlns="http://www.w3.org/2000/svg">
<path d="M2.12216 10.9091L6.00852 21.929H6.16193L10.0483 10.9091H11.7102L6.90341 24H5.26705L0.460227 10.9091H2.12216ZM17.4972 24.2045C16.5511 24.2045 15.7351 23.9957 15.049 23.5781C14.3672 23.1562 13.8409 22.5682 13.4702 21.8139C13.1037 21.0554 12.9205 20.1733 12.9205 19.1676C12.9205 18.1619 13.1037 17.2756 13.4702 16.5085C13.8409 15.7372 14.3565 15.1364 15.017 14.706C15.6818 14.2713 16.4574 14.054 17.3438 14.054C17.8551 14.054 18.3601 14.1392 18.8587 14.3097C19.3572 14.4801 19.8111 14.7571 20.2202 15.1406C20.6293 15.5199 20.9553 16.0227 21.1982 16.6491C21.4411 17.2756 21.5625 18.0469 21.5625 18.9631V19.6023H13.9943V18.2983H20.0284C20.0284 17.7443 19.9176 17.25 19.696 16.8153C19.4787 16.3807 19.1676 16.0376 18.7628 15.7862C18.3622 15.5348 17.8892 15.4091 17.3438 15.4091C16.7429 15.4091 16.223 15.5582 15.7841 15.8565C15.3494 16.1506 15.0149 16.5341 14.7805 17.0071C14.5462 17.4801 14.429 17.9872 14.429 18.5284V19.3977C14.429 20.1392 14.5568 20.7678 14.8125 21.2834C15.0724 21.7947 15.4325 22.1847 15.8928 22.4531C16.353 22.7173 16.8878 22.8494 17.4972 22.8494C17.8935 22.8494 18.2514 22.794 18.571 22.6832C18.8949 22.5682 19.174 22.3977 19.4084 22.1719C19.6428 21.9418 19.8239 21.6562 19.9517 21.3153L21.4091 21.7244C21.2557 22.2188 20.9979 22.6534 20.6357 23.0284C20.2734 23.3991 19.826 23.6889 19.2933 23.8977C18.7607 24.1023 18.1619 24.2045 17.4972 24.2045ZM24.6072 24V14.1818H26.0646V15.6648H26.1669C26.3459 15.179 26.6697 14.7848 27.1385 14.4822C27.6072 14.1797 28.1357 14.0284 28.7237 14.0284C28.8345 14.0284 28.973 14.0305 29.1392 14.0348C29.3054 14.0391 29.4311 14.0455 29.5163 14.054V15.5881C29.4652 15.5753 29.348 15.5561 29.1648 15.5305C28.9858 15.5007 28.7962 15.4858 28.5959 15.4858C28.1186 15.4858 27.6925 15.5859 27.3175 15.7862C26.9467 15.9822 26.6527 16.255 26.4354 16.6044C26.2223 16.9496 26.1158 17.3437 26.1158 17.7869V24H24.6072ZM42.1369 14.1818V15.4602H37.0488V14.1818H42.1369ZM38.5318 11.8295H40.0403V21.1875C40.0403 21.6136 40.1021 21.9332 40.2257 22.1463C40.3535 22.3551 40.5154 22.4957 40.7115 22.5682C40.9118 22.6364 41.1227 22.6705 41.3443 22.6705C41.5105 22.6705 41.6468 22.6619 41.7534 22.6449C41.8599 22.6236 41.9451 22.6065 42.0091 22.5938L42.3159 23.9489C42.2136 23.9872 42.0708 24.0256 41.8876 24.0639C41.7044 24.1065 41.4721 24.1278 41.1909 24.1278C40.7647 24.1278 40.3471 24.0362 39.938 23.853C39.5332 23.6697 39.1966 23.3906 38.9281 23.0156C38.6639 22.6406 38.5318 22.1676 38.5318 21.5966V11.8295ZM49.0392 24.2045C48.1529 24.2045 47.3752 23.9936 46.7061 23.5717C46.0414 23.1499 45.5215 22.5597 45.1465 21.8011C44.7757 21.0426 44.5904 20.1562 44.5904 19.142C44.5904 18.1193 44.7757 17.2266 45.1465 16.4638C45.5215 15.701 46.0414 15.1087 46.7061 14.6868C47.3752 14.2649 48.1529 14.054 49.0392 14.054C49.9256 14.054 50.7012 14.2649 51.3659 14.6868C52.035 15.1087 52.5549 15.701 52.9256 16.4638C53.3006 17.2266 53.4881 18.1193 53.4881 19.142C53.4881 20.1562 53.3006 21.0426 52.9256 21.8011C52.5549 22.5597 52.035 23.1499 51.3659 23.5717C50.7012 23.9936 49.9256 24.2045 49.0392 24.2045ZM49.0392 22.8494C49.7125 22.8494 50.2665 22.6768 50.7012 22.3317C51.1358 21.9865 51.4576 21.5327 51.6664 20.9702C51.8752 20.4077 51.9796 19.7983 51.9796 19.142C51.9796 18.4858 51.8752 17.8743 51.6664 17.3075C51.4576 16.7408 51.1358 16.2827 50.7012 15.9332C50.2665 15.5838 49.7125 15.4091 49.0392 15.4091C48.3659 15.4091 47.812 15.5838 47.3773 15.9332C46.9426 16.2827 46.6209 16.7408 46.4121 17.3075C46.2033 17.8743 46.0989 18.4858 46.0989 19.142C46.0989 19.7983 46.2033 20.4077 46.4121 20.9702C46.6209 21.5327 46.9426 21.9865 47.3773 22.3317C47.812 22.6768 48.3659 22.8494 49.0392 22.8494ZM60.2482 24.2045C59.43 24.2045 58.7077 23.9979 58.0813 23.5845C57.4549 23.1669 56.9648 22.5788 56.6112 21.8203C56.2575 21.0575 56.0806 20.1562 56.0806 19.1165C56.0806 18.0852 56.2575 17.1903 56.6112 16.4318C56.9648 15.6733 57.457 15.0874 58.0877 14.674C58.7184 14.2607 59.4471 14.054 60.2738 14.054C60.913 14.054 61.418 14.1605 61.7887 14.3736C62.1637 14.5824 62.4492 14.821 62.6452 15.0895C62.8455 15.3537 63.0011 15.571 63.1119 15.7415H63.2397V10.9091H64.7482V24H63.2908V22.4915H63.1119C63.0011 22.6705 62.8434 22.8963 62.6388 23.169C62.4343 23.4375 62.1424 23.6783 61.7631 23.8913C61.3839 24.1001 60.8789 24.2045 60.2482 24.2045ZM60.4528 22.8494C61.0579 22.8494 61.5692 22.6918 61.9869 22.3764C62.4045 22.0568 62.7219 21.6158 62.9393 21.0533C63.1566 20.4865 63.2653 19.8324 63.2653 19.0909C63.2653 18.358 63.1587 17.7166 62.9457 17.1669C62.7326 16.6129 62.4173 16.1825 61.9996 15.8757C61.582 15.5646 61.0664 15.4091 60.4528 15.4091C59.8136 15.4091 59.2809 15.5732 58.8548 15.9013C58.4329 16.2251 58.1154 16.6662 57.9023 17.2244C57.6935 17.7784 57.5891 18.4006 57.5891 19.0909C57.5891 19.7898 57.6957 20.4247 57.9087 20.9957C58.1261 21.5625 58.4457 22.0142 58.8675 22.3509C59.2937 22.6832 59.8221 22.8494 60.4528 22.8494ZM72.4592 24.2045C71.5728 24.2045 70.7951 23.9936 70.1261 23.5717C69.4613 23.1499 68.9414 22.5597 68.5664 21.8011C68.1957 21.0426 68.0103 20.1562 68.0103 19.142C68.0103 18.1193 68.1957 17.2266 68.5664 16.4638C68.9414 15.701 69.4613 15.1087 70.1261 14.6868C70.7951 14.2649 71.5728 14.054 72.4592 14.054C73.3455 14.054 74.1211 14.2649 74.7859 14.6868C75.4549 15.1087 75.9748 15.701 76.3455 16.4638C76.7205 17.2266 76.908 18.1193 76.908 19.142C76.908 20.1562 76.7205 21.0426 76.3455 21.8011C75.9748 22.5597 75.4549 23.1499 74.7859 23.5717C74.1211 23.9936 73.3455 24.2045 72.4592 24.2045ZM72.4592 22.8494C73.1325 22.8494 73.6864 22.6768 74.1211 22.3317C74.5558 21.9865 74.8775 21.5327 75.0863 20.9702C75.2951 20.4077 75.3995 19.7983 75.3995 19.142C75.3995 18.4858 75.2951 17.8743 75.0863 17.3075C74.8775 16.7408 74.5558 16.2827 74.1211 15.9332C73.6864 15.5838 73.1325 15.4091 72.4592 15.4091C71.7859 15.4091 71.2319 15.5838 70.7972 15.9332C70.3626 16.2827 70.0408 16.7408 69.832 17.3075C69.6232 17.8743 69.5188 18.4858 69.5188 19.142C69.5188 19.7983 69.6232 20.4077 69.832 20.9702C70.0408 21.5327 70.3626 21.9865 70.7972 22.3317C71.2319 22.6768 71.7859 22.8494 72.4592 22.8494ZM86.9153 16.3807L85.5602 16.7642C85.475 16.5384 85.3493 16.3189 85.1831 16.1058C85.0211 15.8885 84.7995 15.7095 84.5183 15.5689C84.237 15.4283 83.877 15.358 83.438 15.358C82.8372 15.358 82.3365 15.4964 81.9359 15.7734C81.5396 16.0462 81.3414 16.3935 81.3414 16.8153C81.3414 17.1903 81.4778 17.4865 81.7505 17.7038C82.0233 17.9212 82.4494 18.1023 83.0289 18.2472L84.4863 18.6051C85.3642 18.8182 86.0183 19.1442 86.4487 19.5831C86.8791 20.0178 87.0943 20.5781 87.0943 21.2642C87.0943 21.8267 86.9324 22.3295 86.6085 22.7727C86.2889 23.2159 85.8414 23.5653 85.2662 23.821C84.6909 24.0767 84.0218 24.2045 83.2591 24.2045C82.2576 24.2045 81.4288 23.9872 80.7725 23.5526C80.1163 23.1179 79.7008 22.483 79.5261 21.6477L80.9579 21.2898C81.0943 21.8182 81.3521 22.2145 81.7314 22.4787C82.1149 22.7429 82.6156 22.875 83.2335 22.875C83.9366 22.875 84.4949 22.7259 84.9082 22.4276C85.3258 22.125 85.5346 21.7628 85.5346 21.3409C85.5346 21 85.4153 20.7145 85.1767 20.4844C84.938 20.25 84.5716 20.0753 84.0772 19.9602L82.4409 19.5767C81.5417 19.3636 80.8812 19.0334 80.4593 18.5859C80.0417 18.1342 79.8329 17.5696 79.8329 16.892C79.8329 16.3381 79.9885 15.848 80.2995 15.4219C80.6149 14.9957 81.0431 14.6612 81.5843 14.4183C82.1298 14.1754 82.7477 14.054 83.438 14.054C84.4096 14.054 85.1724 14.267 85.7264 14.6932C86.2846 15.1193 86.6809 15.6818 86.9153 16.3807Z" fill="#C92071"/>
<path d="M113.5 12.5L118 17M118 17L113.5 21.5M118 17H102" stroke="#C92071" stroke-width="1.8" stroke-linecap="round" stroke-linejoin="round"/>
</svg>
